<?xml version="1.0" standalone="no"?>
<!DOCTYPE svg PUBLIC "-//W3C//DTD SVG 20010904//EN"
 "http://www.w3.org/TR/2001/REC-SVG-20010904/DTD/svg10.dtd">
<svg version="1.0" xmlns="http://www.w3.org/2000/svg"
 width="141.000000pt" height="255.000000pt" viewBox="0 0 141.000000 255.000000"
 preserveAspectRatio="xMidYMid meet">

<g transform="translate(0.000000,255.000000) scale(0.100000,-0.100000)"
fill="#000000" stroke="none">
<path d="M590 2415 c0 -9 -7 -107 -16 -218 l-15 -202 -35 -32 c-45 -43 -46
-82 -2 -126 37 -37 38 -69 6 -104 -17 -18 -19 -25 -9 -37 15 -17 7 -36 -15
-36 -8 0 -14 -10 -14 -25 0 -14 -3 -25 -7 -25 -9 0 -33 -48 -33 -64 0 -6 -9
-22 -20 -36 -11 -14 -20 -35 -20 -46 0 -12 -7 -27 -16 -34 -8 -8 -35 -40 -60
-73 -78 -102 -72 -116 12 -33 54 53 222 178 334 249 l56 35 33 -27 34 -28 -84
-45 c-46 -25 -113 -60 -148 -78 -102 -51 -243 -141 -273 -174 -34 -37 -37 -79
-6 -100 50 -36 258 -6 354 50 25 14 70 55 101 90 38 43 59 60 64 52 3 -7 9
-58 13 -113 4 -55 9 -124 13 -154 6 -51 5 -54 -13 -46 -30 13 -187 48 -212 47
-33 0 -60 -28 -93 -99 -22 -47 -29 -77 -29 -124 0 -61 0 -61 -18 -39 -25 31
-38 21 -73 -54 -47 -100 -40 -129 70 -296 31 -46 74 -120 96 -164 33 -65 53
-91 108 -137 172 -145 372 -187 470 -100 26 24 31 35 31 80 1 28 -3 55 -9 59
-5 4 -25 36 -44 72 -19 36 -52 84 -75 108 -37 38 -39 44 -27 63 18 30 -2 49
-27 26 -22 -20 -56 -23 -50 -4 3 6 17 13 32 15 19 3 26 8 24 20 -4 17 -8 18
-63 7 -29 -6 -29 -6 -11 9 11 9 28 16 38 16 11 0 18 7 18 20 0 22 -19 27 -37
9 -6 -6 -23 -9 -39 -7 -27 4 -26 5 14 16 25 8 42 18 39 25 -4 12 -11 12 -82 1
l-40 -7 19 22 c11 11 29 21 41 21 21 0 45 17 45 32 0 12 -48 10 -55 -2 -3 -5
-15 -10 -27 -10 -17 0 -18 2 -8 15 7 8 16 15 21 15 4 0 19 4 34 10 23 9 24 12
13 32 -18 32 -28 37 -63 32 l-30 -5 34 15 c18 9 39 16 47 16 19 0 29 21 14 30
-10 6 -10 16 4 49 27 69 22 97 -23 125 -34 22 -40 31 -45 73 -14 113 -27 303
-22 312 4 5 19 16 34 24 212 109 282 162 282 213 0 33 -31 54 -81 54 -31 0
-40 3 -29 10 8 5 11 12 8 16 -9 9 -62 -13 -113 -46 -53 -34 -112 -60 -119 -53
-3 4 -6 19 -6 35 0 23 11 35 68 72 93 61 131 73 185 59 23 -6 44 -9 46 -7 8 8
-47 113 -89 168 -47 65 -117 117 -190 143 -54 18 -55 20 -61 63 -4 25 -10 102
-14 173 -7 112 -14 145 -28 120 -2 -5 2 -69 9 -143 20 -212 22 -200 -29 -200
-23 0 -60 -9 -82 -20 -21 -11 -40 -18 -42 -16 -4 3 8 174 23 324 4 41 2 62 -5
62 -6 0 -11 -7 -11 -15z m173 -460 c6 -83 5 -102 -8 -114 -13 -14 -18 -14 -38
-1 -12 7 -40 16 -62 19 -35 5 -40 10 -46 39 -4 19 -12 39 -18 45 -43 43 40
120 124 115 l40 -3 8 -100z m104 73 c56 -26 134 -105 178 -179 19 -33 35 -61
35 -63 0 -1 -13 -1 -30 2 -52 7 -98 -8 -166 -54 -36 -25 -69 -43 -72 -39 -3 3
-8 32 -10 64 l-4 58 41 30 c23 17 62 41 86 54 25 13 45 27 45 31 0 22 -95 -1
-143 -35 -16 -10 -31 -17 -34 -14 -3 3 -8 45 -11 93 l-5 86 24 -7 c13 -4 43
-16 66 -27z m-310 -110 c-3 -8 -6 -5 -6 6 -1 11 2 17 5 13 3 -3 4 -12 1 -19z
m-13 -55 c6 2 16 13 22 25 19 38 24 37 24 -6 0 -39 -2 -42 -26 -42 -32 0 -54
25 -53 60 1 22 2 21 12 -8 5 -18 15 -31 21 -29z m154 -38 l22 -16 -51 -64
c-77 -95 -103 -99 -76 -11 9 29 17 62 17 74 0 33 50 43 88 17z m-115 -65 c-3
-12 -8 -19 -11 -16 -5 6 5 36 12 36 2 0 2 -9 -1 -20z m199 -36 c3 -51 -4 -74
-24 -74 -4 0 -8 29 -8 65 0 49 3 65 14 65 10 0 15 -16 18 -56z m-72 26 c-6
-11 -13 -20 -16 -20 -2 0 0 9 6 20 6 11 13 20 16 20 2 0 0 -9 -6 -20z m20 -65
l0 -55 -117 -79 c-65 -43 -138 -94 -163 -113 -40 -29 -43 -30 -28 -8 10 14 35
55 55 92 37 67 53 82 53 53 0 -9 9 -15 24 -15 25 0 71 45 136 132 19 26 36 48
38 48 1 0 2 -25 2 -55z m-81 -12 c-25 -34 -83 -93 -91 -93 -10 0 -10 41 0 58
5 7 16 10 24 7 9 -4 28 4 44 19 34 30 41 33 23 9z m471 -38 c29 -35 -17 -81
-155 -155 -44 -23 -90 -49 -103 -58 -12 -8 -25 -12 -28 -9 -4 3 -8 34 -11 69
l-5 63 49 33 c98 65 223 93 253 57z m-330 -21 c0 -9 -5 -14 -12 -12 -18 6 -21
28 -4 28 9 0 16 -7 16 -16z m14 -131 c11 -67 7 -91 -17 -110 -12 -10 -36 -37
-52 -60 -60 -84 -179 -138 -326 -150 -112 -8 -147 19 -99 79 24 31 151 108
320 196 69 35 129 68 135 73 19 18 33 8 39 -28z m-54 -450 l34 -6 -44 -13
c-83 -25 -150 -14 -136 21 6 18 37 17 146 -2z m-174 -20 c-10 -10 -19 5 -10
18 6 11 8 11 12 0 2 -7 1 -15 -2 -18z m254 -38 c10 -9 20 -38 23 -66 4 -28 11
-57 17 -64 8 -10 8 -19 0 -34 -9 -17 -20 -21 -61 -21 l-51 0 8 33 c4 17 7 40
6 51 -1 27 -32 56 -58 56 -14 0 -25 8 -29 21 -8 25 -8 25 35 38 42 12 88 6
110 -14z m-199 -5 l24 -19 -23 -1 c-28 0 -62 17 -62 30 0 17 37 11 61 -10z
m271 -7 c19 -17 23 -49 9 -72 -7 -11 -13 -5 -25 24 -26 62 -20 81 16 48z
m-340 -10 c10 -9 39 -21 65 -28 42 -11 48 -16 51 -41 2 -16 -3 -42 -12 -59
-16 -29 -20 -30 -81 -30 -56 0 -65 3 -69 20 -14 51 0 155 20 155 4 0 16 -7 26
-17z m176 -55 c7 -7 12 -27 12 -44 0 -34 -14 -52 -25 -34 -10 16 -21 12 -34
-12 -11 -23 -11 -23 -5 2 3 14 8 42 11 63 5 38 19 47 41 25z m-270 -113 c7
-15 9 -54 6 -102 -5 -62 -2 -89 14 -133 30 -86 54 -120 190 -271 51 -56 149
-122 224 -151 65 -24 195 -36 226 -19 12 6 22 8 22 4 -1 -35 -70 -63 -155 -63
-91 0 -194 44 -294 124 -64 51 -82 73 -114 136 -21 41 -68 119 -104 173 -82
124 -97 160 -89 210 7 43 42 117 55 117 4 0 13 -11 19 -25z m157 -13 c17 -12
17 -138 0 -152 -21 -18 -39 0 -70 67 -32 70 -31 81 3 86 47 7 57 7 67 -1z
m146 -22 l24 -20 -51 2 c-28 1 -56 -2 -62 -6 -21 -13 -2 -26 37 -26 21 0 53
-3 70 -6 25 -5 29 -9 20 -20 -6 -8 -20 -14 -31 -14 -11 0 -28 -5 -39 -11 -16
-8 -25 -7 -38 5 -10 9 -22 16 -28 16 -15 0 -26 54 -18 80 9 28 83 28 116 0z
m99 -30 c-20 -13 -40 -13 -40 0 0 6 12 10 28 10 21 0 24 -2 12 -10z m-273
-212 c20 -22 41 -23 65 -1 13 12 18 31 19 77 0 51 2 57 10 36 6 -14 14 -53 18
-88 7 -60 6 -63 -18 -78 -14 -9 -38 -27 -52 -41 l-26 -24 -33 37 c-53 61 -106
203 -93 253 5 22 12 14 50 -64 24 -49 51 -97 60 -107z m228 112 c-9 -10 -33
-24 -52 -31 -23 -7 -33 -16 -31 -27 4 -20 35 -17 59 4 8 8 23 14 32 14 32 0
17 -20 -34 -45 -35 -18 -49 -31 -45 -41 5 -14 -9 -20 -17 -6 -3 4 -7 32 -11
62 l-7 55 38 17 c21 9 49 17 62 17 23 1 24 0 6 -19z m-194 -25 c17 16 22 17
29 5 11 -18 3 -60 -16 -79 -17 -19 -38 -2 -65 50 -25 51 -24 57 6 29 24 -23
25 -23 46 -5z m244 -85 c-11 -12 -30 -20 -49 -20 l-31 1 24 19 c13 11 35 20
49 20 24 0 25 0 7 -20z m14 -49 c21 -13 -3 -41 -35 -41 -12 0 -26 -4 -29 -10
-10 -17 -36 -11 -55 12 -21 26 -17 38 12 38 16 0 18 -3 9 -14 -9 -10 -8 -16 4
-26 12 -10 19 -7 42 19 30 34 32 35 52 22z m-146 -41 c10 -16 21 -30 25 -30 4
0 16 -7 26 -15 19 -14 19 -15 1 -35 -11 -13 -31 -20 -53 -20 -39 0 -102 34
-102 55 0 12 67 75 80 75 3 0 14 -13 23 -30z m245 8 c2 -5 23 -31 47 -59 55
-65 90 -131 82 -154 -6 -15 -18 -17 -80 -14 -58 3 -82 10 -122 34 -27 17 -68
32 -89 35 -48 6 -57 26 -19 42 56 24 83 49 83 75 0 40 26 63 64 56 17 -3 33
-10 34 -15z m-134 -69 c-12 -13 -20 -16 -22 -9 -3 7 2 16 9 21 25 16 32 9 13
-12z m-101 -83 c3 -7 27 -16 54 -20 27 -3 64 -17 84 -30 80 -55 182 -73 225
-41 26 20 34 19 34 -5 0 -87 -177 -78 -338 18 -37 22 -78 52 -91 66 l-24 26
25 0 c14 0 28 -6 31 -14z"/>
</g>
</svg>
